<svg width="1055" height="990" viewBox="0 0 1055 990" fill="none" xmlns="http://www.w3.org/2000/svg">
    <defs>
        <filter id="shadow3l" x="-15%" y="-10%" width="135%" height="138%">
            <feGaussianBlur in="SourceAlpha" stdDeviation="22" result="blur"/>
            <feFlood flood-color="#E07D00" flood-opacity="0.35" result="color"/>
            <feComposite in="color" in2="blur" operator="in" result="glow"/>
            <feOffset dy="4" result="offsetGlow"/>
            <feMerge>
                <feMergeNode in="offsetGlow"/>
                <feMergeNode in="SourceGraphic"/>
            </feMerge>
        </filter>
        <linearGradient id="grad3l" x1="527" y1="20" x2="527" y2="970" gradientUnits="userSpaceOnUse">
            <stop offset="0%"   stop-color="#FFB443"/>
            <stop offset="22%"  stop-color="#E07D00"/>
            <stop offset="48%"  stop-color="#C46800"/>
            <stop offset="72%"  stop-color="#e0ddd8"/>
            <stop offset="100%" stop-color="#F0EDE8"/>
        </linearGradient>
        <linearGradient id="sheen3l" x1="200" y1="50" x2="750" y2="500" gradientUnits="userSpaceOnUse">
            <stop offset="0%"   stop-color="#ffffff" stop-opacity="0.25"/>
            <stop offset="100%" stop-color="#ffffff" stop-opacity="0"/>
        </linearGradient>
    </defs>
    <path
            filter="url(#shadow3l)"
            fill="url(#grad3l)"
            d="M484.873 42.5517C492.661 19.1476 525.766 19.1499 533.551 42.5556L631.278 336.414C634.75 346.854 644.52 353.9 655.523 353.9H973.024C998.006 353.901 1008.25 385.982 987.887 400.458L718.076 592.263L510.879 738.397L237.799 931.588C217.573 945.894 190.824 926.054 198.648 902.546L295.913 610.286C299.464 599.609 295.616 587.867 286.431 581.364L30.88 400.487C10.4662 386.04 20.6888 353.901 45.6983 353.9H362.847C373.849 353.9 383.619 346.858 387.091 336.418L484.873 42.5517Z"/>
    <path
            fill="url(#sheen3l)"
            d="M484.873 42.5517C492.661 19.1476 525.766 19.1499 533.551 42.5556L631.278 336.414C634.75 346.854 644.52 353.9 655.523 353.9H973.024C998.006 353.901 1008.25 385.982 987.887 400.458L718.076 592.263L510.879 738.397L237.799 931.588C217.573 945.894 190.824 926.054 198.648 902.546L295.913 610.286C299.464 599.609 295.616 587.867 286.431 581.364L30.88 400.487C10.4662 386.04 20.6888 353.901 45.6983 353.9H362.847C373.849 353.9 383.619 346.858 387.091 336.418L484.873 42.5517Z"/>
</svg>
