<svg width="34" height="34" viewBox="0 0 34 34" fill="none" xmlns="http://www.w3.org/2000/svg"><defs><clipPath id="star5r"><path fill-rule="evenodd" clip-rule="evenodd" d="M20.8129 12.6806C20.9216 13.0075 21.2275 13.2281 21.572 13.2281H31.4939C32.2731 13.2281 32.5925 14.2287 31.9575 14.6802L23.5259 20.6741L17.051 25.2408L8.51725 31.278C7.88641 31.7242 7.05214 31.1054 7.29615 30.3722L10.3357 21.2391C10.4469 20.9048 10.3264 20.5371 10.0388 20.3335L2.05283 14.6811C1.41614 14.2305 1.73498 13.2281 2.51501 13.2281H12.4259C12.7704 13.2281 13.0763 13.0076 13.185 12.6807L16.2407 3.49738C16.4836 2.76743 17.5161 2.76751 17.7589 3.49751L20.8129 12.6806ZM24.3865 23.4532C24.3865 23.4534 24.3863 23.4537 24.386 23.4537L18.6831 24.8696C18.0206 25.0341 17.8552 25.8994 18.4103 26.2967L25.4782 31.3542C26.1078 31.8047 26.9464 31.1873 26.7033 30.4523L24.3877 23.453C24.3875 23.4523 24.3865 23.4525 24.3865 23.4532Z"/></clipPath></defs><!-- Base: yellow --><path fill-rule="evenodd" clip-rule="evenodd" d="M20.8129 12.6806C20.9216 13.0075 21.2275 13.2281 21.572 13.2281H31.4939C32.2731 13.2281 32.5925 14.2287 31.9575 14.6802L23.5259 20.6741L17.051 25.2408L8.51725 31.278C7.88641 31.7242 7.05214 31.1054 7.29615 30.3722L10.3357 21.2391C10.4469 20.9048 10.3264 20.5371 10.0388 20.3335L2.05283 14.6811C1.41614 14.2305 1.73498 13.2281 2.51501 13.2281H12.4259C12.7704 13.2281 13.0763 13.0076 13.185 12.6807L16.2407 3.49738C16.4836 2.76743 17.5161 2.76751 17.7589 3.49751L20.8129 12.6806ZM24.3865 23.4532C24.3865 23.4534 24.3863 23.4537 24.386 23.4537L18.6831 24.8696C18.0206 25.0341 17.8552 25.8994 18.4103 26.2967L25.4782 31.3542C26.1078 31.8047 26.9464 31.1873 26.7033 30.4523L24.3877 23.453C24.3875 23.4523 24.3865 23.4525 24.3865 23.4532Z" fill="#F7A610"/><!-- Shadow: curved diagonal like r2, clipped to star --><g clip-path="url(#star5r)"><path d="M28 28 C18 25 7.4 19.7 0.8 12 L-2 14 L-2 40 L40 40 L40 28 Z" fill="#F19314"/></g></svg>